<svg width="28" height="28" viewBox="0 0 28 28" fill="none" xmlns="http://www.w3.org/2000/svg">
<path d="M19.733 15.3334C20.733 15.3334 21.613 14.7867 22.0663 13.9601L26.8397 5.30675C27.333 4.42675 26.693 3.33341 25.6797 3.33341H5.94634L4.69301 0.666748H0.333008V3.33341H2.99967L7.79967 13.4534L5.99967 16.7067C5.02634 18.4934 6.30634 20.6667 8.33301 20.6667H24.333V18.0001H8.33301L9.79967 15.3334H19.733ZM7.21301 6.00008H23.413L19.733 12.6667H10.373L7.21301 6.00008ZM8.33301 22.0001C6.86634 22.0001 5.67967 23.2001 5.67967 24.6667C5.67967 26.1334 6.86634 27.3334 8.33301 27.3334C9.79967 27.3334 10.9997 26.1334 10.9997 24.6667C10.9997 23.2001 9.79967 22.0001 8.33301 22.0001ZM21.6663 22.0001C20.1997 22.0001 19.013 23.2001 19.013 24.6667C19.013 26.1334 20.1997 27.3334 21.6663 27.3334C23.133 27.3334 24.333 26.1334 24.333 24.6667C24.333 23.2001 23.133 22.0001 21.6663 22.0001Z" fill="#323232"/>
</svg>
