<svg width="78" height="79" viewBox="0 0 78 79" fill="none" xmlns="http://www.w3.org/2000/svg">
<path d="M30.4872 34.4055L45.9579 7.61553C43.6876 7.12903 41.3524 6.83713 38.9199 6.83713C31.1359 6.83713 24.0006 9.59396 18.422 14.1346L30.2926 34.7298L30.4872 34.4055ZM69.8613 29.5405C66.8774 20.0699 59.6448 12.4805 50.4013 8.97773L38.5307 29.5405H69.8613ZM70.7046 32.7838H46.412L47.3526 34.4055L62.7908 61.163C68.1099 55.3898 71.3532 47.7356 71.3532 39.2705C71.3532 37.0326 71.1262 34.892 70.7046 32.7838ZM27.698 39.2705L15.049 17.378C9.76234 23.1511 6.48657 30.8054 6.48657 39.2705C6.48657 41.5084 6.71361 43.649 7.13524 45.7571H31.4278L27.698 39.2705ZM7.97851 49.0005C10.9624 58.471 18.195 66.0604 27.4385 69.5632L39.3091 49.0005H7.97851ZM44.5309 49.0005L31.8819 70.9254C34.1522 71.4119 36.4874 71.7038 38.9199 71.7038C46.7039 71.7038 53.8392 68.947 59.4178 64.4063L47.5472 43.8111L44.5309 49.0005Z" fill="black"/>
</svg>
