<svg width="79" height="79" viewBox="0 0 79 79" fill="none" xmlns="http://www.w3.org/2000/svg">
<g clip-path="url(#clip0_1392_11181)">
<path d="M38.8793 30.4805C43.0306 30.6751 44.1008 34.2102 44.1657 35.8642H49.9711C49.7116 29.4427 45.1387 25.5184 38.782 25.5184C31.6144 25.5184 26.2955 30.0264 26.2955 40.2102C26.2955 46.502 29.3117 53.9614 38.7495 53.9614C45.9495 53.9614 49.8089 48.6101 49.9062 44.3939H44.1008C44.0035 46.3074 42.6414 48.8696 38.8144 49.0642C34.5658 48.9344 32.782 45.6264 32.782 40.2102C32.782 30.8372 36.9333 30.5454 38.8793 30.4805ZM39.2684 7.32385C21.3658 7.32385 6.83618 21.8535 6.83618 39.7561C6.83618 57.6587 21.3658 72.1884 39.2684 72.1884C57.171 72.1884 71.7007 57.6587 71.7007 39.7561C71.7007 21.8535 57.171 7.32385 39.2684 7.32385ZM39.2684 65.7019C24.9658 65.7019 13.3226 54.0587 13.3226 39.7561C13.3226 25.4535 24.9658 13.8103 39.2684 13.8103C53.5711 13.8103 65.2142 25.4535 65.2142 39.7561C65.2142 54.0587 53.5711 65.7019 39.2684 65.7019Z" fill="#0E0E0E"/>
</g>
<defs>
<clipPath id="clip0_1392_11181">
<rect width="77.8374" height="77.8374" fill="white" transform="translate(0.349609 0.837402)"/>
</clipPath>
</defs>
</svg>
