<svg width="49" height="49" viewBox="0 0 49 49" fill="none" xmlns="http://www.w3.org/2000/svg">
<path fill-rule="evenodd" clip-rule="evenodd" d="M6.49121 24.4236C6.49121 33.3236 12.9912 40.7236 21.4912 42.2236L21.5915 42.1433C21.5581 42.1369 21.5247 42.1303 21.4912 42.1236V29.4236H16.9912V24.4236H21.4912V20.4236C21.4912 15.9236 24.3912 13.4236 28.4912 13.4236C29.7912 13.4236 31.1912 13.6236 32.4912 13.8236V18.4236H30.1912C27.9912 18.4236 27.4912 19.5236 27.4912 20.9236V24.4236H32.2912L31.4912 29.4236H27.4912V42.1236C27.4578 42.1303 27.4243 42.1369 27.3909 42.1433L27.4912 42.2236C35.9912 40.7236 42.4912 33.3236 42.4912 24.4236C42.4912 14.5236 34.3912 6.42358 24.4912 6.42358C14.5912 6.42358 6.49121 14.5236 6.49121 24.4236Z" fill="black"/>
</svg>
