<svg width="78" height="78" viewBox="0 0 78 78" fill="none" xmlns="http://www.w3.org/2000/svg">
<path fill-rule="evenodd" clip-rule="evenodd" d="M9.72974 38.9188C9.72974 53.3511 20.2702 65.3511 34.0539 67.7835L34.2167 67.6532C34.1625 67.6428 34.1082 67.6321 34.0539 67.6212V47.0267H26.7567V38.9187H34.0539V32.4322C34.0539 25.135 38.7566 21.0809 45.4052 21.0809C47.5133 21.0809 49.7836 21.4053 51.8917 21.7296V29.189H48.162C44.5944 29.189 43.7836 30.9728 43.7836 33.243V38.9187H51.5674L50.2701 47.0267H43.7836V67.6212C43.7293 67.6321 43.6751 67.6428 43.6208 67.6532L43.7836 67.7835C57.5673 65.3511 68.1078 53.3511 68.1078 38.9188C68.1078 22.8648 54.9727 9.72974 38.9188 9.72974C22.8648 9.72974 9.72974 22.8648 9.72974 38.9188Z" fill="black"/>
</svg>
