<svg width="79" height="78" viewBox="0 0 79 78" fill="none" xmlns="http://www.w3.org/2000/svg">
<g clip-path="url(#clip0_1392_11180)">
<path d="M54.3752 9.72968C48.732 9.72968 43.3158 12.3567 39.7807 16.508C36.2455 12.3567 30.8293 9.72968 25.1861 9.72968C15.197 9.72968 7.34839 17.5783 7.34839 27.5674C7.34839 39.8268 18.3754 49.816 35.078 64.9943L39.7807 69.2429L44.4833 64.9618C61.1859 49.816 72.2129 39.8268 72.2129 27.5674C72.2129 17.5783 64.3643 9.72968 54.3752 9.72968ZM40.105 60.1618L39.7807 60.4862L39.4563 60.1618C24.0186 46.1835 13.8348 36.9403 13.8348 27.5674C13.8348 21.081 18.6997 16.2161 25.1861 16.2161C30.1807 16.2161 35.0455 19.4269 36.7645 23.8701H42.8293C44.5158 19.4269 49.3806 16.2161 54.3752 16.2161C60.8616 16.2161 65.7265 21.081 65.7265 27.5674C65.7265 36.9403 55.5427 46.1835 40.105 60.1618Z" fill="#323232"/>
</g>
<defs>
<clipPath id="clip0_1392_11180">
<rect width="77.8374" height="77.8374" fill="white" transform="translate(0.861816)"/>
</clipPath>
</defs>
</svg>
