<svg width="79" height="79" viewBox="0 0 79 79" fill="none" xmlns="http://www.w3.org/2000/svg">
<path d="M65.704 13.3238H13.8106C10.2105 13.3238 7.35641 16.2104 7.35641 19.8105L7.32397 58.7305C7.32397 62.3306 10.2105 65.2171 13.8106 65.2171H65.704C69.3041 65.2171 72.1906 62.3306 72.1906 58.7305V19.8105C72.1906 16.2104 69.3041 13.3238 65.704 13.3238ZM28.4056 49.0005H24.5136L16.2431 37.6488V49.0005H12.189V29.5405H16.2431L24.3515 40.8921V29.5405H28.4056V49.0005ZM44.6223 33.6271H36.514V37.2596H44.6223V41.3462H36.514V44.9463H44.6223V49.0005H31.649V29.5405H44.6223V33.6271ZM67.3256 45.7571C67.3256 47.541 65.8661 49.0005 64.0823 49.0005H51.109C49.3251 49.0005 47.8656 47.541 47.8656 45.7571V29.5405H51.9198V44.1679H55.5848V32.7514H59.6389V44.1355H63.2715V29.5405H67.3256V45.7571Z" fill="black"/>
</svg>
