<svg width="79" height="78" viewBox="0 0 79 78" fill="none" xmlns="http://www.w3.org/2000/svg">
<path d="M13.3333 34.055C10.6413 34.055 8.46826 36.228 8.46826 38.92C8.46826 41.612 10.6413 43.785 13.3333 43.785C16.0252 43.785 18.1983 41.612 18.1983 38.92C18.1983 36.228 16.0252 34.055 13.3333 34.055ZM13.3333 14.595C10.6413 14.595 8.46826 16.768 8.46826 19.46C8.46826 22.152 10.6413 24.325 13.3333 24.325C16.0252 24.325 18.1983 22.152 18.1983 19.46C18.1983 16.768 16.0252 14.595 13.3333 14.595ZM13.3333 53.515C10.6413 53.515 8.46826 55.7205 8.46826 58.38C8.46826 61.0395 10.6737 63.245 13.3333 63.245C15.9928 63.245 18.1983 61.0395 18.1983 58.38C18.1983 55.7205 16.0252 53.515 13.3333 53.515ZM23.0633 61.6233H68.4699V55.1367H23.0633V61.6233ZM23.0633 42.1633H68.4699V35.6767H23.0633V42.1633ZM23.0633 16.2167V22.7033H68.4699V16.2167H23.0633Z" fill="black"/>
</svg>
