<svg width="78" height="79" viewBox="0 0 78 79" fill="none" xmlns="http://www.w3.org/2000/svg">
<rect y="0.675171" width="14.1523" height="14.1523" fill="#0E0E0E"/>
<rect x="21.229" y="0.675171" width="14.1523" height="14.1523" fill="#0E0E0E"/>
<rect x="42.4558" y="0.675171" width="14.1523" height="14.1523" fill="#0E0E0E"/>
<rect x="63.6848" y="0.675171" width="14.1523" height="14.1523" fill="#0E0E0E"/>
<rect y="21.9033" width="14.1523" height="14.1523" fill="#0E0E0E"/>
<rect x="21.229" y="21.9033" width="14.1523" height="14.1523" fill="#0E0E0E"/>
<rect x="42.4604" y="21.9033" width="14.1523" height="14.1523" fill="#0E0E0E"/>
<rect x="63.6848" y="21.9036" width="14.1523" height="14.1523" fill="#0E0E0E"/>
<rect y="43.1319" width="14.1523" height="14.1523" fill="#0E0E0E"/>
<rect x="21.229" y="43.1319" width="14.1523" height="14.1523" fill="#0E0E0E"/>
<rect x="42.4604" y="43.1319" width="14.1523" height="14.1523" fill="#0E0E0E"/>
<rect x="63.6848" y="43.1317" width="14.1523" height="14.1523" fill="#0E0E0E"/>
<rect y="64.3606" width="14.1523" height="14.1523" fill="#0E0E0E"/>
<rect x="21.229" y="64.3606" width="14.1523" height="14.1523" fill="#0E0E0E"/>
<rect x="42.4604" y="64.3606" width="14.1523" height="14.1523" fill="#0E0E0E"/>
<rect x="63.6848" y="64.3607" width="14.1523" height="14.1523" fill="#0E0E0E"/>
</svg>
