<svg width="78" height="78" viewBox="0 0 78 78" fill="none" xmlns="http://www.w3.org/2000/svg">
<path d="M35.6766 58.38H42.1632V51.8933H35.6766V58.38ZM38.9199 6.48666C21.0167 6.48666 6.48657 21.0168 6.48657 38.92C6.48657 56.8232 21.0167 71.3533 38.9199 71.3533C56.8231 71.3533 71.3532 56.8232 71.3532 38.92C71.3532 21.0168 56.8231 6.48666 38.9199 6.48666ZM38.9199 64.8667C24.6168 64.8667 12.9732 53.2231 12.9732 38.92C12.9732 24.6169 24.6168 12.9733 38.9199 12.9733C53.223 12.9733 64.8666 24.6169 64.8666 38.92C64.8666 53.2231 53.223 64.8667 38.9199 64.8667ZM38.9199 19.46C31.7521 19.46 25.9466 25.2656 25.9466 32.4333H32.4332C32.4332 28.8657 35.3522 25.9467 38.9199 25.9467C42.4876 25.9467 45.4066 28.8657 45.4066 32.4333C45.4066 38.92 35.6766 38.1092 35.6766 48.65H42.1632C42.1632 41.3525 51.8932 40.5417 51.8932 32.4333C51.8932 25.2656 46.0877 19.46 38.9199 19.46Z" fill="black"/>
</svg>
