<svg width="79" height="78" viewBox="0 0 79 78" fill="none" xmlns="http://www.w3.org/2000/svg">
<path d="M39.7574 10.6142C32.0706 10.6142 31.1059 10.6478 28.0869 10.7852C25.0737 10.9232 23.017 11.4002 21.2174 12.1002C19.3558 12.8231 17.7767 13.7902 16.2035 15.364C14.6291 16.9373 13.662 18.5165 12.9368 20.3775C12.2351 22.1778 11.7574 24.2352 11.6218 27.2472C11.4868 30.2664 11.4514 31.2317 11.4514 38.9187C11.4514 46.6057 11.4856 47.5675 11.6224 50.5867C11.761 53.5999 12.238 55.6567 12.9374 57.4564C13.6609 59.318 14.6279 60.8972 16.2017 62.4704C17.7743 64.0449 19.3534 65.0143 21.2138 65.7372C23.0146 66.4372 25.072 66.9142 28.0845 67.0522C31.1036 67.1896 32.0677 67.2232 39.7539 67.2232C47.4413 67.2232 48.403 67.1896 51.4221 67.0522C54.4352 66.9142 56.4943 66.4372 58.2952 65.7372C60.1561 65.0143 61.7329 64.0449 63.3055 62.4704C64.8799 60.8972 65.8469 59.318 66.5722 57.457C67.268 55.6567 67.7456 53.5993 67.8871 50.5872C68.0228 47.5681 68.0581 46.6057 68.0581 38.9187C68.0581 31.2317 68.0228 30.267 67.8871 27.2478C67.7456 24.2346 67.268 22.1778 66.5722 20.3781C65.8469 18.5165 64.8799 16.9373 63.3055 15.364C61.7311 13.7896 60.1567 12.8225 58.2934 12.1002C56.489 11.4002 54.4311 10.9232 51.418 10.7852C48.3989 10.6478 47.4377 10.6142 39.7486 10.6142H39.7574ZM37.2184 15.7149C37.9719 15.7137 38.8128 15.7149 39.7574 15.7149C47.3145 15.7149 48.2102 15.742 51.1945 15.8777C53.9541 16.0038 55.4518 16.465 56.4495 16.8524C57.7704 17.3654 58.712 17.9787 59.7021 18.9693C60.6927 19.96 61.306 20.9035 61.8201 22.2244C62.2075 23.2209 62.6692 24.7187 62.7948 27.4784C62.9305 30.4621 62.9599 31.3585 62.9599 38.9122C62.9599 46.466 62.9305 47.3623 62.7948 50.3461C62.6687 53.1058 62.2075 54.6035 61.8201 55.6001C61.3071 56.921 60.6927 57.8615 59.7021 58.8516C58.7115 59.8422 57.7709 60.4555 56.4495 60.9685C55.453 61.3577 53.9541 61.8177 51.1945 61.9438C48.2108 62.0795 47.3145 62.109 39.7574 62.109C32.1998 62.109 31.3041 62.0795 28.3204 61.9438C25.5608 61.8165 24.0631 61.3553 23.0648 60.9679C21.7439 60.4549 20.8005 59.8416 19.8098 58.851C18.8192 57.8603 18.206 56.9192 17.6918 55.5977C17.3044 54.6012 16.8427 53.1034 16.7171 50.3437C16.5815 47.3599 16.5543 46.4636 16.5543 38.9051C16.5543 31.3467 16.5815 30.4551 16.7171 27.4713C16.8433 24.7116 17.3044 23.2138 17.6918 22.2161C18.2048 20.8952 18.8192 19.9517 19.8098 18.9611C20.8005 17.9704 21.7439 17.3572 23.0648 16.843C24.0625 16.4538 25.5608 15.9938 28.3204 15.867C30.9314 15.7491 31.9433 15.7137 37.2184 15.7078V15.7149ZM54.8657 20.4146C52.9906 20.4146 51.4692 21.9342 51.4692 23.81C51.4692 25.6852 52.9906 27.2065 54.8657 27.2065C56.7408 27.2065 58.2621 25.6852 58.2621 23.81C58.2621 21.9348 56.7408 20.4135 54.8657 20.4135V20.4146ZM39.7574 24.3832C31.7304 24.3832 25.2223 30.8914 25.2223 38.9187C25.2223 46.946 31.7304 53.4513 39.7574 53.4513C47.7845 53.4513 54.2902 46.946 54.2902 38.9187C54.2902 30.8914 47.7839 24.3832 39.7568 24.3832H39.7574ZM39.7574 29.4839C44.9677 29.4839 49.192 33.7077 49.192 38.9187C49.192 44.1291 44.9677 48.3535 39.7574 48.3535C34.5466 48.3535 30.3229 44.1291 30.3229 38.9187C30.3229 33.7077 34.5466 29.4839 39.7574 29.4839Z" fill="black"/>
</svg>
