<svg width="36" height="36" viewBox="0 0 36 36" fill="none" xmlns="http://www.w3.org/2000/svg">
<path d="M17.9916 0.968994C13.2514 0.968994 12.6565 0.989722 10.7947 1.07445C8.93661 1.15954 7.66828 1.45372 6.5585 1.88536C5.41053 2.33118 4.43674 2.92754 3.46659 3.89809C2.49571 4.86827 1.89936 5.84208 1.4521 6.98972C1.01939 8.0999 0.724854 9.36863 0.64122 11.2261C0.55795 13.0879 0.536133 13.6832 0.536133 18.4235C0.536133 23.1639 0.557223 23.757 0.641584 25.6188C0.727036 27.477 1.02121 28.7454 1.45247 29.8552C1.89864 31.0032 2.49498 31.977 3.4655 32.9472C4.43529 33.9181 5.40908 34.5159 6.55631 34.9617C7.66683 35.3934 8.93551 35.6875 10.7933 35.7726C12.655 35.8574 13.2496 35.8781 17.9894 35.8781C22.73 35.8781 23.3231 35.8574 25.1848 35.7726C27.043 35.6875 28.3127 35.3934 29.4233 34.9617C30.5709 34.5159 31.5432 33.9181 32.513 32.9472C33.4839 31.977 34.0802 31.0032 34.5275 29.8555C34.9565 28.7454 35.2511 27.4766 35.3384 25.6192C35.422 23.7574 35.4438 23.1639 35.4438 18.4235C35.4438 13.6832 35.422 13.0883 35.3384 11.2264C35.2511 9.36827 34.9565 8.0999 34.5275 6.99008C34.0802 5.84208 33.4839 4.86827 32.513 3.89809C31.5421 2.92718 30.5712 2.33081 29.4222 1.88536C28.3095 1.45372 27.0404 1.15954 25.1823 1.07445C23.3205 0.989722 22.7278 0.968994 17.9861 0.968994H17.9916ZM16.4258 4.11445C16.8905 4.11372 17.4091 4.11445 17.9916 4.11445C22.6518 4.11445 23.2042 4.13118 25.0445 4.21481C26.7462 4.29263 27.6699 4.57699 28.2851 4.8159C29.0996 5.13227 29.6803 5.51045 30.2909 6.12136C30.9018 6.73227 31.2799 7.31408 31.597 8.12863C31.8359 8.74318 32.1206 9.66681 32.1981 11.3686C32.2817 13.2086 32.2999 13.7614 32.2999 18.4195C32.2999 23.0777 32.2817 23.6304 32.1981 25.4704C32.1203 27.1723 31.8359 28.0959 31.597 28.7104C31.2807 29.525 30.9018 30.105 30.2909 30.7155C29.68 31.3264 29.1 31.7046 28.2851 32.021C27.6706 32.261 26.7462 32.5446 25.0445 32.6224C23.2045 32.7061 22.6518 32.7243 17.9916 32.7243C13.331 32.7243 12.7787 32.7061 10.9387 32.6224C9.23696 32.5439 8.31335 32.2595 7.69773 32.0206C6.88321 31.7043 6.30141 31.3261 5.69052 30.7152C5.07963 30.1043 4.70146 29.5239 4.38438 28.709C4.14548 28.0944 3.86076 27.1708 3.78331 25.469C3.69967 23.629 3.68295 23.0763 3.68295 18.4152C3.68295 13.7541 3.69967 13.2043 3.78331 11.3643C3.86112 9.66245 4.14548 8.73881 4.38438 8.12354C4.70073 7.30899 5.07963 6.72718 5.69052 6.11627C6.30141 5.50536 6.88321 5.12718 7.69773 4.81008C8.31299 4.57008 9.23696 4.28645 10.9387 4.20827C12.5489 4.13554 13.1728 4.11372 16.4258 4.11009V4.11445ZM27.3084 7.01263C26.1521 7.01263 25.2139 7.94972 25.2139 9.10645C25.2139 10.2628 26.1521 11.201 27.3084 11.201C28.4647 11.201 29.4029 10.2628 29.4029 9.10645C29.4029 7.95008 28.4647 7.0119 27.3084 7.0119V7.01263ZM17.9916 9.4599C13.0416 9.4599 9.02824 13.4734 9.02824 18.4235C9.02824 23.3737 13.0416 27.3854 17.9916 27.3854C22.9416 27.3854 26.9535 23.3737 26.9535 18.4235C26.9535 13.4734 22.9413 9.4599 17.9912 9.4599H17.9916ZM17.9916 12.6054C21.2046 12.6054 23.8096 15.2101 23.8096 18.4235C23.8096 21.6366 21.2046 24.2417 17.9916 24.2417C14.7782 24.2417 12.1736 21.6366 12.1736 18.4235C12.1736 15.2101 14.7782 12.6054 17.9916 12.6054Z" fill="black"/>
</svg>
