<svg width="79" height="79" viewBox="0 0 79 79" fill="none" xmlns="http://www.w3.org/2000/svg">
<path d="M39.76 48.8404C45.1439 48.8404 49.4575 44.4944 49.4575 39.1104L49.49 19.6504C49.49 14.2665 45.1439 9.92043 39.76 9.92043C34.376 9.92043 30.03 14.2665 30.03 19.6504V39.1104C30.03 44.4944 34.376 48.8404 39.76 48.8404ZM56.9496 39.1104C56.9496 48.8404 48.7116 55.6514 39.76 55.6514C30.8084 55.6514 22.5703 48.8404 22.5703 39.1104H17.0566C17.0566 50.2026 25.8785 59.3164 36.5166 60.9056V71.5438H43.0033V60.9056C53.6414 59.3488 62.4633 50.2026 62.4633 39.1104H56.9496Z" fill="black"/>
</svg>
