<svg width="49" height="49" viewBox="0 0 49 49" fill="none" xmlns="http://www.w3.org/2000/svg">
<path fill-rule="evenodd" clip-rule="evenodd" d="M10.4045 7.42358C9.0717 7.42358 7.99121 8.50407 7.99121 9.83691V39.0102C7.99121 40.343 9.0717 41.4235 10.4045 41.4235H39.5779C40.9107 41.4235 41.9912 40.343 41.9912 39.0102V9.83691C41.9912 8.50407 40.9107 7.42358 39.5779 7.42358H10.4045ZM15.6226 17.9823C17.2516 17.9823 18.5721 16.6618 18.5721 15.0328C18.5721 13.4038 17.2516 12.0833 15.6226 12.0833C13.9937 12.0833 12.6732 13.4038 12.6732 15.0328C12.6732 16.6618 13.9937 17.9823 15.6226 17.9823ZM21.2734 20.1621H26.1616V22.4014C26.1616 22.4014 27.4881 19.7484 31.0973 19.7484C34.3169 19.7484 36.984 21.3344 36.984 26.1688V36.3631H31.9183V27.4041C31.9183 24.5523 30.3958 24.2386 29.2356 24.2386C26.8279 24.2386 26.4157 26.3154 26.4157 27.7761V36.3631H21.2734V20.1621ZM18.1938 20.1621H13.0515V36.3631H18.1938V20.1621Z" fill="black"/>
</svg>
