<svg width="79" height="78" viewBox="0 0 79 78" fill="none" xmlns="http://www.w3.org/2000/svg">
<path fill-rule="evenodd" clip-rule="evenodd" d="M15.7773 11.3515C13.6159 11.3515 11.8638 13.1036 11.8638 15.265V62.5727C11.8638 64.7341 13.6159 66.4862 15.7773 66.4862H63.0851C65.2465 66.4862 66.9986 64.7341 66.9986 62.5727V15.265C66.9986 13.1036 65.2465 11.3515 63.0851 11.3515H15.7773ZM24.239 28.4736C26.8806 28.4736 29.0219 26.3323 29.0219 23.6907C29.0219 21.0492 26.8806 18.9078 24.239 18.9078C21.5975 18.9078 19.4561 21.0492 19.4561 23.6907C19.4561 26.3323 21.5975 28.4736 24.239 28.4736ZM33.4023 32.0084H41.3292V35.6397C41.3292 35.6397 43.4802 31.3376 49.333 31.3376C54.5539 31.3376 58.8788 33.9095 58.8788 41.749V58.2802H50.6643V43.7521C50.6643 39.1276 48.1954 38.619 46.314 38.619C42.4096 38.619 41.7411 41.9868 41.7411 44.3554V58.2802H33.4023V32.0084ZM28.4084 32.0084H20.0696V58.2802H28.4084V32.0084Z" fill="black"/>
</svg>
