<svg width="78" height="79" viewBox="0 0 78 79" fill="none" xmlns="http://www.w3.org/2000/svg">
<g clip-path="url(#clip0_1392_11169)">
<path d="M38.9185 72.1885C42.486 72.1885 45.4049 69.2696 45.4049 65.702H32.432C32.432 69.2696 35.3509 72.1885 38.9185 72.1885ZM58.3778 52.7291V36.513C58.3778 26.5563 53.0914 18.2212 43.7833 16.0158V13.8104C43.7833 11.1185 41.6103 8.94556 38.9185 8.94556C36.2266 8.94556 34.0536 11.1185 34.0536 13.8104V16.0158C24.778 18.2212 19.4591 26.5238 19.4591 36.513V52.7291L12.9727 59.2156V62.4588H64.8643V59.2156L58.3778 52.7291ZM51.8914 55.9723H25.9456V36.513C25.9456 28.4698 30.8428 21.9185 38.9185 21.9185C46.9941 21.9185 51.8914 28.4698 51.8914 36.513V55.9723Z" fill="#0E0E0E"/>
</g>
<defs>
<clipPath id="clip0_1392_11169">
<rect width="77.8374" height="77.8374" fill="white" transform="translate(0 0.837402)"/>
</clipPath>
</defs>
</svg>
