<svg width="22" height="27" viewBox="0 0 22 27" fill="none" xmlns="http://www.w3.org/2000/svg">
<path d="M10.9997 26.3333C12.4663 26.3333 13.6663 25.1333 13.6663 23.6666H8.33301C8.33301 25.1333 9.53301 26.3333 10.9997 26.3333ZM18.9997 18.3333V11.6666C18.9997 7.57325 16.8263 4.14659 12.9997 3.23992V2.33325C12.9997 1.22659 12.1063 0.333252 10.9997 0.333252C9.89301 0.333252 8.99967 1.22659 8.99967 2.33325V3.23992C5.18634 4.14659 2.99967 7.55992 2.99967 11.6666V18.3333L0.333008 20.9999V22.3333H21.6663V20.9999L18.9997 18.3333ZM16.333 19.6666H5.66634V11.6666C5.66634 8.35992 7.67967 5.66659 10.9997 5.66659C14.3197 5.66659 16.333 8.35992 16.333 11.6666V19.6666Z" fill="#0E0E0E"/>
</svg>
