<svg width="79" height="79" viewBox="0 0 79 79" fill="none" xmlns="http://www.w3.org/2000/svg">
<g clip-path="url(#clip0_1392_11172)">
<path d="M39.4307 20.2969C42.9982 20.2969 45.9171 23.2158 45.9171 26.7833C45.9171 30.3509 42.9982 33.2698 39.4307 33.2698C35.8631 33.2698 32.9442 30.3509 32.9442 26.7833C32.9442 23.2158 35.8631 20.2969 39.4307 20.2969ZM39.4307 52.7291C48.1874 52.7291 58.2414 56.9129 58.89 59.2156H19.9713C20.7173 56.8805 30.7064 52.7291 39.4307 52.7291ZM39.4307 13.8104C32.2631 13.8104 26.4578 19.6158 26.4578 26.7833C26.4578 33.9509 32.2631 39.7562 39.4307 39.7562C46.5982 39.7562 52.4036 33.9509 52.4036 26.7833C52.4036 19.6158 46.5982 13.8104 39.4307 13.8104ZM39.4307 46.2427C30.7713 46.2427 13.4849 50.5886 13.4849 59.2156V65.702H65.3765V59.2156C65.3765 50.5886 48.0901 46.2427 39.4307 46.2427Z" fill="#323232"/>
</g>
<defs>
<clipPath id="clip0_1392_11172">
<rect width="77.8374" height="77.8374" fill="white" transform="translate(0.512207 0.837402)"/>
</clipPath>
</defs>
</svg>
