<svg width="79" height="79" viewBox="0 0 79 79" fill="none" xmlns="http://www.w3.org/2000/svg">
<path d="M39.5974 49.6491C45.3294 49.6491 49.9761 45.0024 49.9761 39.2705C49.9761 33.5385 45.3294 28.8918 39.5974 28.8918C33.8654 28.8918 29.2188 33.5385 29.2188 39.2705C29.2188 45.0024 33.8654 49.6491 39.5974 49.6491Z" fill="black"/>
<path d="M29.8674 6.83713L23.9321 13.3238H13.6507C10.0831 13.3238 7.16406 16.2428 7.16406 19.8105V58.7305C7.16406 62.2981 10.0831 65.2171 13.6507 65.2171H65.5441C69.1117 65.2171 72.0307 62.2981 72.0307 58.7305V19.8105C72.0307 16.2428 69.1117 13.3238 65.5441 13.3238H55.2627L49.3274 6.83713H29.8674ZM39.5974 55.4871C30.6458 55.4871 23.3807 48.2221 23.3807 39.2705C23.3807 30.3189 30.6458 23.0538 39.5974 23.0538C48.549 23.0538 55.8141 30.3189 55.8141 39.2705C55.8141 48.2221 48.549 55.4871 39.5974 55.4871Z" fill="black"/>
</svg>
