<svg width="79" height="79" viewBox="0 0 79 79" fill="none" xmlns="http://www.w3.org/2000/svg">
<path d="M29.3762 45.9182L48.8356 26.4589M30.9979 28.0805H31.0304M47.2141 44.2966H47.2465M61.8085 68.6208V16.7292C61.8085 13.1468 58.9044 10.2427 55.322 10.2427H22.8898C19.3074 10.2427 16.4033 13.1468 16.4033 16.7292V68.6208L27.7546 62.1344L39.1059 68.6208L50.4572 62.1344L61.8085 68.6208ZM32.6195 28.0805C32.6195 28.9761 31.8934 29.7021 30.9978 29.7021C30.1022 29.7021 29.3762 28.9761 29.3762 28.0805C29.3762 27.1849 30.1022 26.4589 30.9978 26.4589C31.8934 26.4589 32.6195 27.1849 32.6195 28.0805ZM48.8356 44.2966C48.8356 45.1922 48.1096 45.9182 47.214 45.9182C46.3184 45.9182 45.5924 45.1922 45.5924 44.2966C45.5924 43.401 46.3184 42.675 47.214 42.675C48.1096 42.675 48.8356 43.401 48.8356 44.2966Z" stroke="#0E0E0E" stroke-width="4.86484" stroke-linecap="round" stroke-linejoin="round"/>
</svg>
