<svg width="78" height="71" viewBox="0 0 78 71" fill="none" xmlns="http://www.w3.org/2000/svg">
<g clip-path="url(#clip0_1418_10639)">
<g filter="url(#filter0_d_1418_10639)">
<path d="M58.9008 12.0271H49.647L44.305 6.18877H26.79L21.448 12.0271H12.1943C8.9832 12.0271 6.35596 14.6543 6.35596 17.8654V52.8952C6.35596 56.1063 8.9832 58.7336 12.1943 58.7336H58.9008C62.1118 58.7336 64.7391 56.1063 64.7391 52.8952V17.8654C64.7391 14.6543 62.1118 12.0271 58.9008 12.0271ZM58.9008 52.8952H12.1943V17.8654H24.0168L29.3589 12.0271H41.7361L47.0782 17.8654H58.9008V52.8952ZM35.5475 20.7845C27.4906 20.7845 20.9517 27.3235 20.9517 35.3803C20.9517 43.4372 27.4906 49.9761 35.5475 49.9761C43.6044 49.9761 50.1433 43.4372 50.1433 35.3803C50.1433 27.3235 43.6044 20.7845 35.5475 20.7845ZM35.5475 44.1378C30.7309 44.1378 26.79 40.1969 26.79 35.3803C26.79 30.5637 30.7309 26.6229 35.5475 26.6229C40.3641 26.6229 44.305 30.5637 44.305 35.3803C44.305 40.1969 40.3641 44.1378 35.5475 44.1378Z" fill="#0E0E0E"/>
</g>
</g>
<rect x="51.2463" y="26.621" width="26.2709" height="35.3298" rx="4.42879" fill="white"/>
<path d="M63.0192 52.8762C63.0192 51.1733 63.2979 49.7801 63.8552 48.6964C64.4435 47.5818 65.4962 46.4052 67.0133 45.1668C68.1279 44.2689 69.0103 43.5103 69.6605 42.8911C70.3107 42.2409 70.7596 41.6062 71.0073 40.987C71.286 40.3677 71.4253 39.6246 71.4253 38.7577C71.4253 37.4264 70.9764 36.4046 70.0785 35.6925C69.2116 34.9804 67.9421 34.6243 66.2702 34.6243C64.815 34.6243 63.4837 34.8256 62.2761 35.2281C61.0686 35.5996 59.8921 36.0641 58.7465 36.6214L56.9817 32.906C58.3131 32.1938 59.7683 31.6056 61.3473 31.1411C62.9263 30.6767 64.6757 30.4445 66.5953 30.4445C69.6295 30.4445 71.9671 31.1876 73.6081 32.6737C75.28 34.1599 76.116 36.1415 76.116 38.6184C76.116 39.9497 75.8993 41.1108 75.4658 42.1016C75.0323 43.0614 74.3976 43.9438 73.5617 44.7488C72.7567 45.5538 71.7969 46.4207 70.6822 47.3496C69.6605 48.1546 68.8865 48.8512 68.3601 49.4395C67.8647 50.0278 67.5241 50.616 67.3384 51.2043C67.1526 51.7926 67.0597 52.4892 67.0597 53.2942V54.2231H63.0192V52.8762ZM62.0439 61.3288C62.0439 60.1213 62.3381 59.2698 62.9263 58.7744C63.5456 58.279 64.3196 58.0313 65.2485 58.0313C66.0844 58.0313 66.812 58.279 67.4313 58.7744C68.0815 59.2698 68.4066 60.1213 68.4066 61.3288C68.4066 62.5363 68.0815 63.4032 67.4313 63.9295C66.812 64.4559 66.0844 64.7191 65.2485 64.7191C64.3196 64.7191 63.5456 64.4559 62.9263 63.9295C62.3381 63.4032 62.0439 62.5363 62.0439 61.3288Z" fill="#0E0E0E"/>
<defs>
<filter id="filter0_d_1418_10639" x="-1.64404" y="2.18877" width="74.3831" height="68.5448" filterUnits="userSpaceOnUse" color-interpolation-filters="sRGB">
<feFlood flood-opacity="0" result="BackgroundImageFix"/>
<feColorMatrix in="SourceAlpha" type="matrix" values="0 0 0 0 0 0 0 0 0 0 0 0 0 0 0 0 0 0 127 0" result="hardAlpha"/>
<feOffset dy="4"/>
<feGaussianBlur stdDeviation="4"/>
<feColorMatrix type="matrix" values="0 0 0 0 0.145833 0 0 0 0 0.145833 0 0 0 0 0.145833 0 0 0 0.2 0"/>
<feBlend mode="normal" in2="BackgroundImageFix" result="effect1_dropShadow_1418_10639"/>
<feBlend mode="normal" in="SourceGraphic" in2="effect1_dropShadow_1418_10639" result="shape"/>
</filter>
<clipPath id="clip0_1418_10639">
<rect width="70.0597" height="70.0597" fill="white" transform="translate(0.517578 0.350464)"/>
</clipPath>
</defs>
</svg>
