<svg width="79" height="79" viewBox="0 0 79 79" fill="none" xmlns="http://www.w3.org/2000/svg">
<g clip-path="url(#clip0_1392_11237)">
<path d="M39.5612 6.99957C21.6586 6.99957 7.16138 21.5292 7.16138 39.4318C7.16138 57.3344 21.6586 71.8641 39.5612 71.8641C57.4963 71.8641 72.0259 57.3344 72.0259 39.4318C72.0259 21.5292 57.4963 6.99957 39.5612 6.99957ZM39.5936 65.3776C25.2586 65.3776 13.6478 53.7669 13.6478 39.4318C13.6478 25.0968 25.2586 13.486 39.5936 13.486C53.9287 13.486 65.5395 25.0968 65.5395 39.4318C65.5395 53.7669 53.9287 65.3776 39.5936 65.3776Z" fill="#0E0E0E"/>
<path d="M41.2154 23.2156H36.3506V42.675L53.3775 52.8911L55.8099 48.902L41.2154 40.2425V23.2156Z" fill="#0E0E0E"/>
</g>
<defs>
<clipPath id="clip0_1392_11237">
<rect width="77.8374" height="77.8374" fill="white" transform="translate(0.674805 0.513062)"/>
</clipPath>
</defs>
</svg>
