<svg width="79" height="78" viewBox="0 0 79 78" fill="none" xmlns="http://www.w3.org/2000/svg">
<g clip-path="url(#clip0_1392_11178)">
<path d="M50.4571 45.4052H47.8949L46.9868 44.5295C50.1652 40.8322 52.0787 36.0322 52.0787 30.8106C52.0787 19.1675 42.6409 9.72968 30.9977 9.72968C19.3545 9.72968 9.91675 19.1675 9.91675 30.8106C9.91675 42.4538 19.3545 51.8916 30.9977 51.8916C36.2193 51.8916 41.0193 49.9781 44.7166 46.7998L45.5922 47.7079V50.27L61.8084 66.4537L66.6408 61.6213L50.4571 45.4052ZM30.9977 45.4052C22.9221 45.4052 16.4032 38.8863 16.4032 30.8106C16.4032 22.735 22.9221 16.2161 30.9977 16.2161C39.0734 16.2161 45.5922 22.735 45.5922 30.8106C45.5922 38.8863 39.0734 45.4052 30.9977 45.4052Z" fill="#0E0E0E"/>
</g>
<defs>
<clipPath id="clip0_1392_11178">
<rect width="77.8374" height="77.8374" fill="white" transform="translate(0.187012)"/>
</clipPath>
</defs>
</svg>
