<svg width="79" height="79" viewBox="0 0 79 79" fill="none" xmlns="http://www.w3.org/2000/svg">
<g clip-path="url(#clip0_1392_11170)">
<path d="M51.2693 42.9992C53.7017 42.9992 55.8422 41.6695 56.9449 39.6587L68.5557 18.6102C69.7556 16.4696 68.1989 13.8102 65.7341 13.8102H17.7343L14.6857 7.32373H4.08032V13.8102H10.5668L22.2424 38.4263L17.864 46.3397C15.4965 50.6857 18.61 55.9721 23.5397 55.9721H62.4584V49.4857H23.5397L27.1072 42.9992H51.2693ZM20.8154 20.2966H60.2206L51.2693 36.5128H28.5018L20.8154 20.2966ZM23.5397 59.2154C19.9721 59.2154 17.0857 62.1343 17.0857 65.7018C17.0857 69.2694 19.9721 72.1883 23.5397 72.1883C27.1072 72.1883 30.0261 69.2694 30.0261 65.7018C30.0261 62.1343 27.1072 59.2154 23.5397 59.2154ZM55.9719 59.2154C52.4044 59.2154 49.5179 62.1343 49.5179 65.7018C49.5179 69.2694 52.4044 72.1883 55.9719 72.1883C59.5395 72.1883 62.4584 69.2694 62.4584 65.7018C62.4584 62.1343 59.5395 59.2154 55.9719 59.2154Z" fill="#323232"/>
</g>
<defs>
<clipPath id="clip0_1392_11170">
<rect width="77.8374" height="77.8374" fill="white" transform="translate(0.837402 0.837402)"/>
</clipPath>
</defs>
</svg>
