<svg width="79" height="79" viewBox="0 0 79 79" fill="none" xmlns="http://www.w3.org/2000/svg">
<path fill-rule="evenodd" clip-rule="evenodd" d="M64.9856 26.9089C65.0076 27.4761 65.0149 28.0431 65.0149 28.6103C65.0149 45.8065 52.9182 65.6586 30.7975 65.6586C24.0024 65.6586 17.684 63.4929 12.3604 59.8061C13.3014 59.9092 14.2571 59.9868 15.2275 59.9868C20.8616 59.9868 26.0508 57.898 30.1669 54.3918C24.9044 54.3144 20.4607 50.5245 18.9282 45.3682C19.6639 45.5229 20.4216 45.6005 21.1964 45.6005C22.289 45.6005 23.3498 45.446 24.3666 45.1366C18.8597 43.9507 14.7118 38.6914 14.7118 32.3749C14.7118 32.2976 14.7118 32.2716 14.7118 32.2201C16.3348 33.174 18.1924 33.7667 20.1649 33.844C16.9336 31.4979 14.8095 27.5019 14.8095 22.9901C14.8095 20.6182 15.401 18.3751 16.4423 16.4415C22.3721 24.3306 31.2375 29.5128 41.2322 30.0542C41.0269 29.1003 40.9217 28.0951 40.9217 27.0896C40.9217 19.8966 46.3064 14.0698 52.95 14.0698C56.4086 14.0698 59.5324 15.6427 61.7249 18.1693C64.4698 17.6021 67.0413 16.5194 69.3682 15.024C68.4663 18.0663 66.5621 20.6181 64.0739 22.2165C66.5084 21.9072 68.8305 21.2116 70.9839 20.1803C69.3682 22.7843 67.3346 25.0785 64.9856 26.9089Z" fill="#0E0E0E"/>
</svg>
