<svg width="22" height="22" viewBox="0 0 22 22" fill="none" xmlns="http://www.w3.org/2000/svg">
<path d="M10.9997 2.99992C12.4663 2.99992 13.6663 4.19992 13.6663 5.66658C13.6663 7.13325 12.4663 8.33325 10.9997 8.33325C9.53301 8.33325 8.33301 7.13325 8.33301 5.66658C8.33301 4.19992 9.53301 2.99992 10.9997 2.99992ZM10.9997 16.3333C14.5997 16.3333 18.733 18.0533 18.9997 18.9999H2.99967C3.30634 18.0399 7.41301 16.3333 10.9997 16.3333ZM10.9997 0.333252C8.05301 0.333252 5.66634 2.71992 5.66634 5.66658C5.66634 8.61325 8.05301 10.9999 10.9997 10.9999C13.9463 10.9999 16.333 8.61325 16.333 5.66658C16.333 2.71992 13.9463 0.333252 10.9997 0.333252ZM10.9997 13.6666C7.43967 13.6666 0.333008 15.4533 0.333008 18.9999V21.6666H21.6663V18.9999C21.6663 15.4533 14.5597 13.6666 10.9997 13.6666Z" fill="#323232"/>
</svg>
