<svg width="79" height="78" viewBox="0 0 79 78" fill="none" xmlns="http://www.w3.org/2000/svg">
<path fill-rule="evenodd" clip-rule="evenodd" d="M42.2568 9.59488C49.4853 9.95014 56.2209 12.931 61.3655 18.079C66.853 23.57 69.8735 30.869 69.8706 38.6311C69.864 54.649 56.8241 67.6819 40.8053 67.6819C34.7813 67.6819 29.9944 65.8311 26.9035 64.146L11.4954 68.1857L15.6189 53.1316C13.0754 48.7259 11.737 43.7284 11.7391 38.6081C11.7455 22.5906 24.7843 9.55896 40.8048 9.55896L42.2568 9.59488ZM27.6173 58.8867L28.4996 59.4099C32.2087 61.61 36.4603 62.774 40.7953 62.7757H40.8051C54.1205 62.7757 64.9577 51.9435 64.963 38.6294C64.9655 32.1776 62.4551 26.111 57.8941 21.547C53.3328 16.9828 47.2674 14.4677 40.8148 14.4656C27.4892 14.4656 16.6518 25.2967 16.6465 38.6097C16.6447 43.1723 17.9218 47.6157 20.3401 51.4599L20.9145 52.3737L18.474 61.2839L27.6173 58.8867ZM55.4481 45.5394C55.2666 45.2364 54.7825 45.0548 54.0563 44.6915C53.33 44.3281 49.7595 42.5721 49.0938 42.3296C48.4281 42.0877 47.9439 41.9667 47.4598 42.6931C46.9757 43.4197 45.5839 45.0548 45.1601 45.5394C44.7366 46.0238 44.3129 46.0844 43.5868 45.721C42.8605 45.3578 40.5204 44.5911 37.7465 42.1181C35.5874 40.1933 34.1299 37.8164 33.7062 37.0896C33.2827 36.363 33.661 35.97 34.0246 35.6082C34.3514 35.2829 34.751 34.7603 35.1141 34.3364C35.4772 33.9127 35.5982 33.6097 35.8404 33.1255C36.0824 32.6409 35.9613 32.2172 35.7798 31.8538C35.5982 31.4903 34.1458 27.9173 33.5407 26.4639C32.951 25.0486 32.3523 25.2402 31.9065 25.2178C31.4834 25.1969 30.9988 25.1923 30.5147 25.1923C30.0305 25.1923 29.2437 25.3738 28.578 26.1007C27.9123 26.8273 26.0361 28.5836 26.0361 32.1563C26.0361 35.7294 28.6386 39.1808 29.0017 39.6653C29.3648 40.15 34.1227 47.4815 41.408 50.626C43.1407 51.374 44.4935 51.8205 45.5482 52.1551C47.2881 52.7075 48.8712 52.6297 50.1226 52.4427C51.5179 52.2343 54.4194 50.6867 55.0246 48.9913C55.6297 47.2954 55.6297 45.8421 55.4481 45.5394Z" fill="black"/>
</svg>
