<svg width="37" height="37" viewBox="0 0 37 37" fill="none" xmlns="http://www.w3.org/2000/svg">
<path fill-rule="evenodd" clip-rule="evenodd" d="M19.1337 0.34051C23.5913 0.559587 27.745 2.39778 30.9175 5.57241C34.3015 8.95854 36.1641 13.4596 36.1623 18.2463C36.1583 28.124 28.1169 36.161 18.2386 36.161C14.5238 36.161 11.5719 35.0197 9.66578 33.9805L0.164062 36.4717L2.70694 27.1883C1.13841 24.4714 0.313059 21.3896 0.314352 18.2321C0.318318 8.35457 8.35895 0.318359 18.2383 0.318359L19.1337 0.34051ZM10.106 30.7373L10.65 31.06C12.9374 32.4166 15.5592 33.1345 18.2325 33.1355H18.2385C26.4497 33.1355 33.1327 26.4556 33.136 18.2453C33.1375 14.2666 31.5894 10.5255 28.7767 7.71104C25.964 4.89639 22.2236 3.34545 18.2445 3.34415C10.027 3.34415 3.34389 10.0233 3.34061 18.2331C3.33949 21.0467 4.12708 23.7868 5.61835 26.1574L5.97256 26.7209L4.46758 32.2156L10.106 30.7373ZM27.2684 22.5064C27.1565 22.3195 26.858 22.2076 26.4101 21.9835C25.9622 21.7594 23.7604 20.6766 23.3499 20.527C22.9394 20.3778 22.6408 20.3032 22.3422 20.7512C22.0437 21.1993 21.1854 22.2076 20.9241 22.5064C20.6629 22.8051 20.4016 22.8425 19.9539 22.6184C19.506 22.3944 18.063 21.9216 16.3523 20.3966C15.0209 19.2096 14.1221 17.7438 13.8608 17.2957C13.5997 16.8476 13.833 16.6053 14.0572 16.3822C14.2587 16.1815 14.5051 15.8593 14.729 15.5979C14.953 15.3366 15.0275 15.1497 15.1769 14.8511C15.3261 14.5523 15.2515 14.291 15.1396 14.0669C15.0275 13.8428 14.1319 11.6394 13.7587 10.7431C13.3951 9.87035 13.0259 9.98851 12.751 9.97472C12.4901 9.96179 12.1912 9.95894 11.8927 9.95894C11.5941 9.95894 11.1089 10.0709 10.6984 10.5191C10.2879 10.9672 9.13093 12.0503 9.13093 14.2534C9.13093 16.4569 10.7358 18.5852 10.9597 18.884C11.1836 19.1829 14.1177 23.7041 18.6103 25.6432C19.6788 26.1044 20.5131 26.3798 21.1635 26.5861C22.2364 26.9268 23.2126 26.8788 23.9843 26.7635C24.8448 26.635 26.634 25.6806 27.0072 24.6351C27.3804 23.5893 27.3804 22.6931 27.2684 22.5064Z" fill="black"/>
</svg>
