<svg width="41" height="30" viewBox="0 0 41 30" fill="none" xmlns="http://www.w3.org/2000/svg">
<path fill-rule="evenodd" clip-rule="evenodd" d="M36.3374 1.66596C38.0722 2.13301 39.44 3.5008 39.907 5.23555C40.7744 8.40481 40.741 15.0102 40.741 15.0102C40.741 15.0102 40.741 21.5823 39.907 24.7515C39.44 26.4863 38.0722 27.8541 36.3374 28.3211C33.1682 29.1551 20.4911 29.1551 20.4911 29.1551C20.4911 29.1551 7.84744 29.1551 4.64482 28.2878C2.91006 27.8207 1.54228 26.4529 1.07523 24.7182C0.241211 21.5823 0.241211 14.9769 0.241211 14.9769C0.241211 14.9769 0.241211 8.40481 1.07523 5.23555C1.54228 3.5008 2.94342 2.09965 4.64482 1.6326C7.81408 0.798584 20.4911 0.798584 20.4911 0.798584C20.4911 0.798584 33.1682 0.798584 36.3374 1.66596ZM26.9964 14.7452L16.4545 20.8169V8.67358L26.9964 14.7452Z" fill="black"/>
</svg>
