<svg width="79" height="78" viewBox="0 0 79 78" fill="none" xmlns="http://www.w3.org/2000/svg">
<path fill-rule="evenodd" clip-rule="evenodd" d="M64.9648 16.6092C67.7779 17.3666 69.9959 19.5846 70.7533 22.3977C72.1598 27.537 72.1057 38.2484 72.1057 38.2484C72.1057 38.2484 72.1057 48.9057 70.7533 54.045C69.9959 56.8581 67.7779 59.0762 64.9648 59.8335C59.8255 61.186 39.2682 61.186 39.2682 61.186C39.2682 61.186 18.765 61.186 13.5716 59.7794C10.7585 59.0221 8.54049 56.804 7.78312 53.9909C6.43066 48.9057 6.43066 38.1943 6.43066 38.1943C6.43066 38.1943 6.43066 27.537 7.78312 22.3977C8.54049 19.5846 10.8126 17.3125 13.5716 16.5551C18.7109 15.2026 39.2682 15.2026 39.2682 15.2026C39.2682 15.2026 59.8255 15.2026 64.9648 16.6092ZM49.8173 37.8187L32.7223 47.6645V27.9728L49.8173 37.8187Z" fill="black"/>
</svg>
